<svg width="30" height="33" viewBox="0 0 30 33" fill="none" xmlns="http://www.w3.org/2000/svg">
<path d="M2 28.004C3.46667 17.2985 7.52 2.31094 12 28.004H2Z" stroke="#E6E6E6" stroke-width="3"/>
<path d="M6.4 5.40362C5.06667 6.06445 3.2 7.8619 6.4 9.76509C10.4 12.1441 9.2 3.02463 6.4 5.40362Z" stroke="#E6E6E6" stroke-width="3"/>
<path d="M18 27.004C19.4667 16.2985 23.52 1.31094 28 27.004H18Z" stroke="#E6E6E6" stroke-width="3"/>
<path d="M22.4 4.40362C21.0667 5.06445 19.2 6.8619 22.4 8.76509C26.4 11.1441 25.2 2.02463 22.4 4.40362Z" stroke="#E6E6E6" stroke-width="3"/>
<path d="M8.5 31.004C10.3333 17.504 15.4 -1.39602 21 31.004H8.5Z" stroke="#E6E6E6" stroke-width="3"/>
<path d="M14 2.50398C12.3333 3.33731 10 5.60398 14 8.00398C19 11.004 17.5 -0.496024 14 2.50398Z" stroke="#E6E6E6" stroke-width="3"/>
</svg>
